<?xml version="1.0" encoding="utf-8" standalone="no"?>
<!DOCTYPE svg PUBLIC "-//W3C//DTD SVG 1.1//EN"
  "http://www.w3.org/Graphics/SVG/1.1/DTD/svg11.dtd">
<svg height="575.28pt" version="1.1" viewBox="0 0 1053.36 575.28" width="1053.36pt" xmlns="http://www.w3.org/2000/svg" xmlns:xlink="http://www.w3.org/1999/xlink">
 <metadata>
  <rdf:RDF xmlns:cc="http://creativecommons.org/ns#" xmlns:dc="http://purl.org/dc/elements/1.1/" xmlns:rdf="http://www.w3.org/1999/02/22-rdf-syntax-ns#">
   <cc:Work>
    <dc:type rdf:resource="http://purl.org/dc/dcmitype/StillImage"/>
    <dc:date>2023-05-11T17:50:55.878876</dc:date>
    <dc:format>image/svg+xml</dc:format>
    <dc:creator>
     <cc:Agent>
      <dc:title>Matplotlib v3.4.3, https://matplotlib.org/</dc:title>
     </cc:Agent>
    </dc:creator>
   </cc:Work>
  </rdf:RDF>
 </metadata>
 <defs>
  <style type="text/css">*{stroke-linecap:butt;stroke-linejoin:round;}</style>
 </defs>
 <g id="figure_1">
  <g id="patch_1">
   <path d="M 0 575.28 
L 1053.36 575.28 
L 1053.36 0 
L 0 0 
z
" style="fill:#ffffff;"/>
  </g>
  <g id="axes_1">
   <g id="patch_2">
    <path d="M 131.67 511.9992 
L 948.024 511.9992 
L 948.024 69.0336 
L 131.67 69.0336 
z
" style="fill:#ffffff;"/>
   </g>
   <g id="matplotlib.axis_1">
    <g id="xtick_1">
     <g id="line2d_1">
      <path clip-path="url(#p3847016754)" d="M 168.777 511.9992 
L 168.777 69.0336 
" style="fill:none;stroke:#b0b0b0;stroke-linecap:square;stroke-width:0.8;"/>
     </g>
     <g id="line2d_2">
      <defs>
       <path d="M 0 0 
L 0 3.5 
" id="m882089f5d6" style="stroke:#000000;stroke-width:0.8;"/>
      </defs>
      <g>
       <use style="stroke:#000000;stroke-width:0.8;" x="168.777" xlink:href="#m882089f5d6" y="511.9992"/>
      </g>
     </g>
     <g id="text_1">
      <!-- 0.0 -->
      <g transform="translate(160.825438 526.597638)scale(0.1 -0.1)">
       <defs>
        <path d="M 2034 4250 
Q 1547 4250 1301 3770 
Q 1056 3291 1056 2328 
Q 1056 1369 1301 889 
Q 1547 409 2034 409 
Q 2525 409 2770 889 
Q 3016 1369 3016 2328 
Q 3016 3291 2770 3770 
Q 2525 4250 2034 4250 
z
M 2034 4750 
Q 2819 4750 3233 4129 
Q 3647 3509 3647 2328 
Q 3647 1150 3233 529 
Q 2819 -91 2034 -91 
Q 1250 -91 836 529 
Q 422 1150 422 2328 
Q 422 3509 836 4129 
Q 1250 4750 2034 4750 
z
" id="DejaVuSans-30" transform="scale(0.015625)"/>
        <path d="M 684 794 
L 1344 794 
L 1344 0 
L 684 0 
L 684 794 
z
" id="DejaVuSans-2e" transform="scale(0.015625)"/>
       </defs>
       <use xlink:href="#DejaVuSans-30"/>
       <use x="63.623047" xlink:href="#DejaVuSans-2e"/>
       <use x="95.410156" xlink:href="#DejaVuSans-30"/>
      </g>
     </g>
    </g>
    <g id="xtick_2">
     <g id="line2d_3">
      <path clip-path="url(#p3847016754)" d="M 317.205 511.9992 
L 317.205 69.0336 
" style="fill:none;stroke:#b0b0b0;stroke-linecap:square;stroke-width:0.8;"/>
     </g>
     <g id="line2d_4">
      <g>
       <use style="stroke:#000000;stroke-width:0.8;" x="317.205" xlink:href="#m882089f5d6" y="511.9992"/>
      </g>
     </g>
     <g id="text_2">
      <!-- 0.2 -->
      <g transform="translate(309.253438 526.597638)scale(0.1 -0.1)">
       <defs>
        <path d="M 1228 531 
L 3431 531 
L 3431 0 
L 469 0 
L 469 531 
Q 828 903 1448 1529 
Q 2069 2156 2228 2338 
Q 2531 2678 2651 2914 
Q 2772 3150 2772 3378 
Q 2772 3750 2511 3984 
Q 2250 4219 1831 4219 
Q 1534 4219 1204 4116 
Q 875 4013 500 3803 
L 500 4441 
Q 881 4594 1212 4672 
Q 1544 4750 1819 4750 
Q 2544 4750 2975 4387 
Q 3406 4025 3406 3419 
Q 3406 3131 3298 2873 
Q 3191 2616 2906 2266 
Q 2828 2175 2409 1742 
Q 1991 1309 1228 531 
z
" id="DejaVuSans-32" transform="scale(0.015625)"/>
       </defs>
       <use xlink:href="#DejaVuSans-30"/>
       <use x="63.623047" xlink:href="#DejaVuSans-2e"/>
       <use x="95.410156" xlink:href="#DejaVuSans-32"/>
      </g>
     </g>
    </g>
    <g id="xtick_3">
     <g id="line2d_5">
      <path clip-path="url(#p3847016754)" d="M 465.633 511.9992 
L 465.633 69.0336 
" style="fill:none;stroke:#b0b0b0;stroke-linecap:square;stroke-width:0.8;"/>
     </g>
     <g id="line2d_6">
      <g>
       <use style="stroke:#000000;stroke-width:0.8;" x="465.633" xlink:href="#m882089f5d6" y="511.9992"/>
      </g>
     </g>
     <g id="text_3">
      <!-- 0.4 -->
      <g transform="translate(457.681438 526.597638)scale(0.1 -0.1)">
       <defs>
        <path d="M 2419 4116 
L 825 1625 
L 2419 1625 
L 2419 4116 
z
M 2253 4666 
L 3047 4666 
L 3047 1625 
L 3713 1625 
L 3713 1100 
L 3047 1100 
L 3047 0 
L 2419 0 
L 2419 1100 
L 313 1100 
L 313 1709 
L 2253 4666 
z
" id="DejaVuSans-34" transform="scale(0.015625)"/>
       </defs>
       <use xlink:href="#DejaVuSans-30"/>
       <use x="63.623047" xlink:href="#DejaVuSans-2e"/>
       <use x="95.410156" xlink:href="#DejaVuSans-34"/>
      </g>
     </g>
    </g>
    <g id="xtick_4">
     <g id="line2d_7">
      <path clip-path="url(#p3847016754)" d="M 614.061 511.9992 
L 614.061 69.0336 
" style="fill:none;stroke:#b0b0b0;stroke-linecap:square;stroke-width:0.8;"/>
     </g>
     <g id="line2d_8">
      <g>
       <use style="stroke:#000000;stroke-width:0.8;" x="614.061" xlink:href="#m882089f5d6" y="511.9992"/>
      </g>
     </g>
     <g id="text_4">
      <!-- 0.6 -->
      <g transform="translate(606.109438 526.597638)scale(0.1 -0.1)">
       <defs>
        <path d="M 2113 2584 
Q 1688 2584 1439 2293 
Q 1191 2003 1191 1497 
Q 1191 994 1439 701 
Q 1688 409 2113 409 
Q 2538 409 2786 701 
Q 3034 994 3034 1497 
Q 3034 2003 2786 2293 
Q 2538 2584 2113 2584 
z
M 3366 4563 
L 3366 3988 
Q 3128 4100 2886 4159 
Q 2644 4219 2406 4219 
Q 1781 4219 1451 3797 
Q 1122 3375 1075 2522 
Q 1259 2794 1537 2939 
Q 1816 3084 2150 3084 
Q 2853 3084 3261 2657 
Q 3669 2231 3669 1497 
Q 3669 778 3244 343 
Q 2819 -91 2113 -91 
Q 1303 -91 875 529 
Q 447 1150 447 2328 
Q 447 3434 972 4092 
Q 1497 4750 2381 4750 
Q 2619 4750 2861 4703 
Q 3103 4656 3366 4563 
z
" id="DejaVuSans-36" transform="scale(0.015625)"/>
       </defs>
       <use xlink:href="#DejaVuSans-30"/>
       <use x="63.623047" xlink:href="#DejaVuSans-2e"/>
       <use x="95.410156" xlink:href="#DejaVuSans-36"/>
      </g>
     </g>
    </g>
    <g id="xtick_5">
     <g id="line2d_9">
      <path clip-path="url(#p3847016754)" d="M 762.489 511.9992 
L 762.489 69.0336 
" style="fill:none;stroke:#b0b0b0;stroke-linecap:square;stroke-width:0.8;"/>
     </g>
     <g id="line2d_10">
      <g>
       <use style="stroke:#000000;stroke-width:0.8;" x="762.489" xlink:href="#m882089f5d6" y="511.9992"/>
      </g>
     </g>
     <g id="text_5">
      <!-- 0.8 -->
      <g transform="translate(754.537438 526.597638)scale(0.1 -0.1)">
       <defs>
        <path d="M 2034 2216 
Q 1584 2216 1326 1975 
Q 1069 1734 1069 1313 
Q 1069 891 1326 650 
Q 1584 409 2034 409 
Q 2484 409 2743 651 
Q 3003 894 3003 1313 
Q 3003 1734 2745 1975 
Q 2488 2216 2034 2216 
z
M 1403 2484 
Q 997 2584 770 2862 
Q 544 3141 544 3541 
Q 544 4100 942 4425 
Q 1341 4750 2034 4750 
Q 2731 4750 3128 4425 
Q 3525 4100 3525 3541 
Q 3525 3141 3298 2862 
Q 3072 2584 2669 2484 
Q 3125 2378 3379 2068 
Q 3634 1759 3634 1313 
Q 3634 634 3220 271 
Q 2806 -91 2034 -91 
Q 1263 -91 848 271 
Q 434 634 434 1313 
Q 434 1759 690 2068 
Q 947 2378 1403 2484 
z
M 1172 3481 
Q 1172 3119 1398 2916 
Q 1625 2713 2034 2713 
Q 2441 2713 2670 2916 
Q 2900 3119 2900 3481 
Q 2900 3844 2670 4047 
Q 2441 4250 2034 4250 
Q 1625 4250 1398 4047 
Q 1172 3844 1172 3481 
z
" id="DejaVuSans-38" transform="scale(0.015625)"/>
       </defs>
       <use xlink:href="#DejaVuSans-30"/>
       <use x="63.623047" xlink:href="#DejaVuSans-2e"/>
       <use x="95.410156" xlink:href="#DejaVuSans-38"/>
      </g>
     </g>
    </g>
    <g id="xtick_6">
     <g id="line2d_11">
      <path clip-path="url(#p3847016754)" d="M 910.917 511.9992 
L 910.917 69.0336 
" style="fill:none;stroke:#b0b0b0;stroke-linecap:square;stroke-width:0.8;"/>
     </g>
     <g id="line2d_12">
      <g>
       <use style="stroke:#000000;stroke-width:0.8;" x="910.917" xlink:href="#m882089f5d6" y="511.9992"/>
      </g>
     </g>
     <g id="text_6">
      <!-- 1.0 -->
      <g transform="translate(902.965438 526.597638)scale(0.1 -0.1)">
       <defs>
        <path d="M 794 531 
L 1825 531 
L 1825 4091 
L 703 3866 
L 703 4441 
L 1819 4666 
L 2450 4666 
L 2450 531 
L 3481 531 
L 3481 0 
L 794 0 
L 794 531 
z
" id="DejaVuSans-31" transform="scale(0.015625)"/>
       </defs>
       <use xlink:href="#DejaVuSans-31"/>
       <use x="63.623047" xlink:href="#DejaVuSans-2e"/>
       <use x="95.410156" xlink:href="#DejaVuSans-30"/>
      </g>
     </g>
    </g>
    <g id="text_7">
     <!-- FPR -->
     <g transform="translate(525.61325 543.787325)scale(0.16 -0.16)">
      <defs>
       <path d="M 1309 4006 
L 1309 2341 
L 2081 2341 
Q 2347 2341 2470 2458 
Q 2594 2575 2634 2922 
L 2750 2922 
L 2750 1488 
L 2634 1488 
Q 2631 1734 2570 1850 
Q 2509 1966 2401 2023 
Q 2294 2081 2081 2081 
L 1309 2081 
L 1309 750 
Q 1309 428 1350 325 
Q 1381 247 1481 191 
Q 1619 116 1769 116 
L 1922 116 
L 1922 0 
L 103 0 
L 103 116 
L 253 116 
Q 516 116 634 269 
Q 709 369 709 750 
L 709 3488 
Q 709 3809 669 3913 
Q 638 3991 541 4047 
Q 406 4122 253 4122 
L 103 4122 
L 103 4238 
L 3256 4238 
L 3297 3306 
L 3188 3306 
Q 3106 3603 2998 3742 
Q 2891 3881 2733 3943 
Q 2575 4006 2244 4006 
L 1309 4006 
z
" id="TimesNewRomanPSMT-46" transform="scale(0.015625)"/>
       <path d="M 1313 1984 
L 1313 750 
Q 1313 350 1400 253 
Q 1519 116 1759 116 
L 1922 116 
L 1922 0 
L 106 0 
L 106 116 
L 266 116 
Q 534 116 650 291 
Q 713 388 713 750 
L 713 3488 
Q 713 3888 628 3984 
Q 506 4122 266 4122 
L 106 4122 
L 106 4238 
L 1659 4238 
Q 2228 4238 2556 4120 
Q 2884 4003 3109 3725 
Q 3334 3447 3334 3066 
Q 3334 2547 2992 2222 
Q 2650 1897 2025 1897 
Q 1872 1897 1694 1919 
Q 1516 1941 1313 1984 
z
M 1313 2163 
Q 1478 2131 1606 2115 
Q 1734 2100 1825 2100 
Q 2150 2100 2386 2351 
Q 2622 2603 2622 3003 
Q 2622 3278 2509 3514 
Q 2397 3750 2190 3867 
Q 1984 3984 1722 3984 
Q 1563 3984 1313 3925 
L 1313 2163 
z
" id="TimesNewRomanPSMT-50" transform="scale(0.015625)"/>
       <path d="M 4325 0 
L 3194 0 
L 1759 1981 
Q 1600 1975 1500 1975 
Q 1459 1975 1412 1976 
Q 1366 1978 1316 1981 
L 1316 750 
Q 1316 350 1403 253 
Q 1522 116 1759 116 
L 1925 116 
L 1925 0 
L 109 0 
L 109 116 
L 269 116 
Q 538 116 653 291 
Q 719 388 719 750 
L 719 3488 
Q 719 3888 631 3984 
Q 509 4122 269 4122 
L 109 4122 
L 109 4238 
L 1653 4238 
Q 2328 4238 2648 4139 
Q 2969 4041 3192 3777 
Q 3416 3513 3416 3147 
Q 3416 2756 3161 2468 
Q 2906 2181 2372 2063 
L 3247 847 
Q 3547 428 3762 290 
Q 3978 153 4325 116 
L 4325 0 
z
M 1316 2178 
Q 1375 2178 1419 2176 
Q 1463 2175 1491 2175 
Q 2097 2175 2405 2437 
Q 2713 2700 2713 3106 
Q 2713 3503 2464 3751 
Q 2216 4000 1806 4000 
Q 1625 4000 1316 3941 
L 1316 2178 
z
" id="TimesNewRomanPSMT-52" transform="scale(0.015625)"/>
      </defs>
      <use xlink:href="#TimesNewRomanPSMT-46"/>
      <use x="55.615234" xlink:href="#TimesNewRomanPSMT-50"/>
      <use x="111.230469" xlink:href="#TimesNewRomanPSMT-52"/>
     </g>
    </g>
   </g>
   <g id="matplotlib.axis_2">
    <g id="ytick_1">
     <g id="line2d_13">
      <path clip-path="url(#p3847016754)" d="M 131.67 491.8644 
L 948.024 491.8644 
" style="fill:none;stroke:#b0b0b0;stroke-linecap:square;stroke-width:0.8;"/>
     </g>
     <g id="line2d_14">
      <defs>
       <path d="M 0 0 
L -3.5 0 
" id="madc37cedcd" style="stroke:#000000;stroke-width:0.8;"/>
      </defs>
      <g>
       <use style="stroke:#000000;stroke-width:0.8;" x="131.67" xlink:href="#madc37cedcd" y="491.8644"/>
      </g>
     </g>
     <g id="text_8">
      <!-- 0.0 -->
      <g transform="translate(108.766875 495.663619)scale(0.1 -0.1)">
       <use xlink:href="#DejaVuSans-30"/>
       <use x="63.623047" xlink:href="#DejaVuSans-2e"/>
       <use x="95.410156" xlink:href="#DejaVuSans-30"/>
      </g>
     </g>
    </g>
    <g id="ytick_2">
     <g id="line2d_15">
      <path clip-path="url(#p3847016754)" d="M 131.67 411.3252 
L 948.024 411.3252 
" style="fill:none;stroke:#b0b0b0;stroke-linecap:square;stroke-width:0.8;"/>
     </g>
     <g id="line2d_16">
      <g>
       <use style="stroke:#000000;stroke-width:0.8;" x="131.67" xlink:href="#madc37cedcd" y="411.3252"/>
      </g>
     </g>
     <g id="text_9">
      <!-- 0.2 -->
      <g transform="translate(108.766875 415.124419)scale(0.1 -0.1)">
       <use xlink:href="#DejaVuSans-30"/>
       <use x="63.623047" xlink:href="#DejaVuSans-2e"/>
       <use x="95.410156" xlink:href="#DejaVuSans-32"/>
      </g>
     </g>
    </g>
    <g id="ytick_3">
     <g id="line2d_17">
      <path clip-path="url(#p3847016754)" d="M 131.67 330.786 
L 948.024 330.786 
" style="fill:none;stroke:#b0b0b0;stroke-linecap:square;stroke-width:0.8;"/>
     </g>
     <g id="line2d_18">
      <g>
       <use style="stroke:#000000;stroke-width:0.8;" x="131.67" xlink:href="#madc37cedcd" y="330.786"/>
      </g>
     </g>
     <g id="text_10">
      <!-- 0.4 -->
      <g transform="translate(108.766875 334.585219)scale(0.1 -0.1)">
       <use xlink:href="#DejaVuSans-30"/>
       <use x="63.623047" xlink:href="#DejaVuSans-2e"/>
       <use x="95.410156" xlink:href="#DejaVuSans-34"/>
      </g>
     </g>
    </g>
    <g id="ytick_4">
     <g id="line2d_19">
      <path clip-path="url(#p3847016754)" d="M 131.67 250.2468 
L 948.024 250.2468 
" style="fill:none;stroke:#b0b0b0;stroke-linecap:square;stroke-width:0.8;"/>
     </g>
     <g id="line2d_20">
      <g>
       <use style="stroke:#000000;stroke-width:0.8;" x="131.67" xlink:href="#madc37cedcd" y="250.2468"/>
      </g>
     </g>
     <g id="text_11">
      <!-- 0.6 -->
      <g transform="translate(108.766875 254.046019)scale(0.1 -0.1)">
       <use xlink:href="#DejaVuSans-30"/>
       <use x="63.623047" xlink:href="#DejaVuSans-2e"/>
       <use x="95.410156" xlink:href="#DejaVuSans-36"/>
      </g>
     </g>
    </g>
    <g id="ytick_5">
     <g id="line2d_21">
      <path clip-path="url(#p3847016754)" d="M 131.67 169.7076 
L 948.024 169.7076 
" style="fill:none;stroke:#b0b0b0;stroke-linecap:square;stroke-width:0.8;"/>
     </g>
     <g id="line2d_22">
      <g>
       <use style="stroke:#000000;stroke-width:0.8;" x="131.67" xlink:href="#madc37cedcd" y="169.7076"/>
      </g>
     </g>
     <g id="text_12">
      <!-- 0.8 -->
      <g transform="translate(108.766875 173.506819)scale(0.1 -0.1)">
       <use xlink:href="#DejaVuSans-30"/>
       <use x="63.623047" xlink:href="#DejaVuSans-2e"/>
       <use x="95.410156" xlink:href="#DejaVuSans-38"/>
      </g>
     </g>
    </g>
    <g id="ytick_6">
     <g id="line2d_23">
      <path clip-path="url(#p3847016754)" d="M 131.67 89.1684 
L 948.024 89.1684 
" style="fill:none;stroke:#b0b0b0;stroke-linecap:square;stroke-width:0.8;"/>
     </g>
     <g id="line2d_24">
      <g>
       <use style="stroke:#000000;stroke-width:0.8;" x="131.67" xlink:href="#madc37cedcd" y="89.1684"/>
      </g>
     </g>
     <g id="text_13">
      <!-- 1.0 -->
      <g transform="translate(108.766875 92.967619)scale(0.1 -0.1)">
       <use xlink:href="#DejaVuSans-31"/>
       <use x="63.623047" xlink:href="#DejaVuSans-2e"/>
       <use x="95.410156" xlink:href="#DejaVuSans-30"/>
      </g>
     </g>
    </g>
    <g id="text_14">
     <!-- TPR -->
     <g transform="translate(101.344375 305.18765)rotate(-90)scale(0.16 -0.16)">
      <defs>
       <path d="M 3703 4238 
L 3750 3244 
L 3631 3244 
Q 3597 3506 3538 3619 
Q 3441 3800 3280 3886 
Q 3119 3972 2856 3972 
L 2259 3972 
L 2259 734 
Q 2259 344 2344 247 
Q 2463 116 2709 116 
L 2856 116 
L 2856 0 
L 1059 0 
L 1059 116 
L 1209 116 
Q 1478 116 1591 278 
Q 1659 378 1659 734 
L 1659 3972 
L 1150 3972 
Q 853 3972 728 3928 
Q 566 3869 450 3700 
Q 334 3531 313 3244 
L 194 3244 
L 244 4238 
L 3703 4238 
z
" id="TimesNewRomanPSMT-54" transform="scale(0.015625)"/>
      </defs>
      <use xlink:href="#TimesNewRomanPSMT-54"/>
      <use x="61.083984" xlink:href="#TimesNewRomanPSMT-50"/>
      <use x="116.699219" xlink:href="#TimesNewRomanPSMT-52"/>
     </g>
    </g>
   </g>
   <g id="line2d_25">
    <path clip-path="url(#p3847016754)" d="M 168.777 491.8644 
L 174.451417 479.137683 
L 184.823257 461.483783 
L 191.70145 451.010756 
L 195.18529 446.171952 
L 197.524194 443.284873 
L 199.159466 441.068008 
L 201.061971 438.762764 
L 204.066507 434.767252 
L 205.591453 432.970193 
L 206.62974 431.699731 
L 208.730832 429.243504 
L 209.080196 428.790556 
L 216.79809 419.669006 
L 217.167068 419.348629 
L 219.23874 416.94764 
L 219.482682 416.71196 
L 219.852886 416.251647 
L 220.057601 416.052792 
L 220.441289 415.544607 
L 220.634972 415.28315 
L 220.934077 414.948043 
L 221.41951 414.436175 
L 221.723519 413.91326 
L 224.70599 410.772089 
L 225.208585 410.216031 
L 225.700147 409.718894 
L 225.961251 409.508991 
L 226.115707 409.391152 
L 226.218677 409.221757 
L 228.368802 406.916512 
L 229.008691 406.154235 
L 230.401246 404.721743 
L 230.717513 404.441873 
L 231.701864 403.499153 
L 232.030389 403.134586 
L 234.808144 400.486869 
L 235.039828 400.236459 
L 235.228608 400.033921 
L 235.486034 399.739322 
L 235.772881 399.488912 
L 241.117547 394.289223 
L 241.307553 394.083003 
L 241.564979 393.803133 
L 242.630235 392.797811 
L 242.866822 392.580543 
L 243.001665 392.473751 
L 243.362062 392.105501 
L 243.549616 391.950836 
L 243.846269 391.656236 
L 246.179044 389.468832 
L 246.332274 389.332579 
L 246.840998 388.857537 
L 247.681925 388.087895 
L 249.285325 386.397627 
L 249.626109 386.088298 
L 249.794049 385.90049 
L 250.27703 385.436495 
L 250.411873 385.34075 
L 253.174918 382.751953 
L 253.377182 382.538369 
L 257.649237 378.734347 
L 257.99615 378.402922 
L 258.620103 377.880007 
L 258.832174 377.710612 
L 259.438965 377.195062 
L 259.684133 376.952017 
L 261.092624 375.70365 
L 261.242177 375.582128 
L 261.619736 375.210195 
L 262.057361 374.771978 
L 262.28169 374.613631 
L 263.856896 373.151678 
L 264.319038 372.687684 
L 265.316872 371.855439 
L 265.499522 371.660266 
L 265.754497 371.402491 
L 265.908953 371.222049 
L 266.096507 371.071066 
L 267.200989 370.120982 
L 267.545451 369.874254 
L 268.256438 369.248229 
L 271.745182 366.313278 
L 272.033254 366.02236 
L 272.793276 365.370558 
L 273.060509 365.186433 
L 273.25174 364.950753 
L 273.802143 364.376283 
L 274.499646 363.669243 
L 274.694555 363.547721 
L 274.932368 363.356231 
L 275.112566 363.212614 
L 275.296443 363.024806 
L 276.253824 362.115229 
L 276.570091 361.861136 
L 277.315403 361.220382 
L 277.762834 360.848449 
L 278.115877 360.572262 
L 278.44195 360.318169 
L 279.100227 359.688462 
L 279.43243 359.438052 
L 279.756052 359.176595 
L 280.543042 358.543205 
L 281.176801 358.038702 
L 281.641395 357.648357 
L 282.590196 356.937635 
L 282.818202 356.757193 
L 292.024267 349.211752 
L 292.388342 348.97239 
L 292.68377 348.699885 
L 292.859065 348.596775 
L 293.898578 347.786625 
L 294.57892 347.226885 
L 294.984673 346.847588 
L 295.564496 346.313625 
L 295.960442 346.007978 
L 296.366196 345.753886 
L 297.589585 344.899546 
L 297.771009 344.715421 
L 298.038242 344.501836 
L 298.662195 344.026794 
L 299.090014 343.713781 
L 302.892572 340.800924 
L 303.514074 340.347977 
L 304.162543 339.80665 
L 304.459197 339.633572 
L 304.738689 339.412622 
L 309.727861 335.608601 
L 310.139744 335.284541 
L 310.833569 334.743213 
L 313.053567 333.075041 
L 313.916559 332.360637 
L 315.752869 330.902367 
L 315.974746 330.710877 
L 318.050095 329.101625 
L 318.459526 328.803343 
L 319.432843 328.081573 
L 319.76382 327.867988 
L 320.391451 327.411358 
L 320.657458 327.278788 
L 321.175989 326.899491 
L 321.513095 326.682223 
L 323.697544 324.944084 
L 324.234462 324.564786 
L 325.096228 323.809874 
L 325.348751 323.614701 
L 331.089364 319.155195 
L 331.280595 319.011578 
L 331.840805 318.61755 
L 332.21346 318.392918 
L 332.604503 318.094635 
L 333.556982 317.350771 
L 333.764149 317.203471 
L 341.262617 311.705499 
L 341.887796 311.326202 
L 342.036123 311.226775 
L 342.479877 310.899032 
L 343.719203 309.96736 
L 344.202184 309.661713 
L 344.394641 309.496 
L 347.625957 307.220216 
L 347.84906 307.095011 
L 348.192296 306.859331 
L 348.615211 306.572096 
L 348.908187 306.413748 
L 349.416911 306.108101 
L 349.760146 305.909246 
L 350.13035 305.655154 
L 350.462553 305.419474 
L 351.825688 304.543039 
L 352.162794 304.296311 
L 352.969398 303.780762 
L 353.253793 303.648192 
L 354.382792 302.900644 
L 354.809385 302.609727 
L 355.542438 302.038939 
L 355.9249 301.843767 
L 356.448334 301.475517 
L 359.65636 299.19605 
L 360.496061 298.702595 
L 360.876071 298.426408 
L 361.511057 298.047111 
L 362.190173 297.546291 
L 363.760475 296.445223 
L 364.096355 296.272146 
L 364.467785 296.051196 
L 364.835537 295.822881 
L 365.215548 295.539329 
L 365.507298 295.347839 
L 366.245254 294.887526 
L 368.193116 293.591287 
L 368.526544 293.344559 
L 369.075721 292.928437 
L 370.409436 292.040955 
L 370.731832 291.808957 
L 372.131742 290.818365 
L 373.405391 290.05977 
L 375.924494 288.465248 
L 377.85029 287.194786 
L 378.257269 286.922281 
L 378.497534 286.767616 
L 378.762316 286.605586 
L 380.065384 285.729151 
L 381.340259 284.837986 
L 381.646719 284.613354 
L 381.948276 284.399769 
L 382.644554 283.887902 
L 383.083405 283.622762 
L 383.421737 283.398129 
L 383.801747 283.195592 
L 384.268793 282.923087 
L 385.343855 282.245507 
L 385.676058 281.995097 
L 389.033636 279.977088 
L 398.243379 274.331817 
L 398.526548 274.151374 
L 402.99719 271.441055 
L 403.401717 271.172233 
L 404.569943 270.531478 
L 405.115443 270.155863 
L 409.599569 267.423449 
L 410.132809 267.106754 
L 410.484626 266.915264 
L 411.021544 266.576474 
L 411.24955 266.443904 
L 412.387131 265.766324 
L 412.721785 265.560104 
L 413.881431 264.842017 
L 414.495577 264.451672 
L 414.860878 264.227039 
L 416.171301 263.306415 
L 416.388275 263.18121 
L 417.947545 262.37106 
L 420.698332 260.724983 
L 421.475515 260.260988 
L 422.231859 259.796993 
L 423.650157 258.942653 
L 424.086556 258.673831 
L 425.354075 257.933648 
L 425.605373 257.786349 
L 426.437719 257.381274 
L 426.966056 257.060896 
L 427.330131 256.788391 
L 427.69298 256.541664 
L 427.951632 256.383316 
L 429.791619 255.344852 
L 430.248858 255.101807 
L 430.561447 254.943459 
L 435.912243 251.861208 
L 436.276318 251.640258 
L 441.451818 248.620608 
L 442.316036 248.049821 
L 442.605334 247.862014 
L 443.583555 247.364876 
L 443.876531 247.195481 
L 444.317834 246.959801 
L 456.039324 240.530158 
L 457.153614 239.948323 
L 457.789825 239.502741 
L 465.215969 235.330469 
L 465.743081 235.032187 
L 466.416067 234.71181 
L 467.860108 233.964262 
L 469.53338 233.021542 
L 469.963651 232.79691 
L 470.53857 232.494945 
L 471.06323 232.16352 
L 472.392041 231.45648 
L 473.768661 230.734711 
L 474.889079 230.016623 
L 476.407896 229.147554 
L 477.306437 228.646734 
L 486.816511 223.69009 
L 488.476299 222.740005 
L 491.583806 221.127071 
L 493.417664 220.195398 
L 494.251236 219.724038 
L 495.108099 219.252679 
L 496.012769 218.810779 
L 496.712724 218.405704 
L 497.638234 217.879106 
L 500.272566 216.601279 
L 501.419953 216.004714 
L 502.556308 215.459705 
L 505.171026 214.255527 
L 506.513322 213.577948 
L 512.436585 210.543568 
L 518.508175 207.498142 
L 520.985599 206.257139 
L 525.100747 204.231765 
L 527.402876 203.07546 
L 533.811572 200.287809 
L 537.013469 198.601224 
L 544.975305 194.915042 
L 550.061319 192.701861 
L 554.02814 191.066831 
L 569.856197 183.97802 
L 573.281197 182.195691 
L 577.225953 180.358124 
L 586.715187 176.583562 
L 592.238826 174.19362 
L 615.158373 164.663313 
L 638.804843 155.736935 
L 654.66845 150.194774 
L 675.171864 143.290088 
L 706.725008 133.343658 
L 830.966432 101.368519 
L 910.917 89.1684 
L 910.917 89.1684 
" style="fill:none;stroke:#ff7f0e;stroke-linecap:square;stroke-width:1.5;"/>
   </g>
   <g id="patch_3">
    <path d="M 131.67 511.9992 
L 131.67 69.0336 
" style="fill:none;stroke:#000000;stroke-linecap:square;stroke-linejoin:miter;stroke-width:0.8;"/>
   </g>
   <g id="patch_4">
    <path d="M 948.024 511.9992 
L 948.024 69.0336 
" style="fill:none;stroke:#000000;stroke-linecap:square;stroke-linejoin:miter;stroke-width:0.8;"/>
   </g>
   <g id="patch_5">
    <path d="M 131.67 511.9992 
L 948.024 511.9992 
" style="fill:none;stroke:#000000;stroke-linecap:square;stroke-linejoin:miter;stroke-width:0.8;"/>
   </g>
   <g id="patch_6">
    <path d="M 131.67 69.0336 
L 948.024 69.0336 
" style="fill:none;stroke:#000000;stroke-linecap:square;stroke-linejoin:miter;stroke-width:0.8;"/>
   </g>
   <g id="text_15">
    <!-- ROC: Epoch = 30 -->
    <g transform="translate(467.820437 63.0336)scale(0.2 -0.2)">
     <defs>
      <path d="M 2341 4334 
Q 3166 4334 3770 3707 
Q 4375 3081 4375 2144 
Q 4375 1178 3765 540 
Q 3156 -97 2291 -97 
Q 1416 -97 820 525 
Q 225 1147 225 2134 
Q 225 3144 913 3781 
Q 1509 4334 2341 4334 
z
M 2281 4106 
Q 1713 4106 1369 3684 
Q 941 3159 941 2147 
Q 941 1109 1384 550 
Q 1725 125 2284 125 
Q 2881 125 3270 590 
Q 3659 1056 3659 2059 
Q 3659 3147 3231 3681 
Q 2888 4106 2281 4106 
z
" id="TimesNewRomanPSMT-4f" transform="scale(0.015625)"/>
      <path d="M 3853 4334 
L 3950 2894 
L 3853 2894 
Q 3659 3541 3300 3825 
Q 2941 4109 2438 4109 
Q 2016 4109 1675 3895 
Q 1334 3681 1139 3212 
Q 944 2744 944 2047 
Q 944 1472 1128 1050 
Q 1313 628 1683 403 
Q 2053 178 2528 178 
Q 2941 178 3256 354 
Q 3572 531 3950 1056 
L 4047 994 
Q 3728 428 3303 165 
Q 2878 -97 2294 -97 
Q 1241 -97 663 684 
Q 231 1266 231 2053 
Q 231 2688 515 3219 
Q 800 3750 1298 4042 
Q 1797 4334 2388 4334 
Q 2847 4334 3294 4109 
Q 3425 4041 3481 4041 
Q 3566 4041 3628 4100 
Q 3709 4184 3744 4334 
L 3853 4334 
z
" id="TimesNewRomanPSMT-43" transform="scale(0.015625)"/>
      <path d="M 903 2950 
Q 1047 2950 1148 2848 
Q 1250 2747 1250 2603 
Q 1250 2459 1148 2357 
Q 1047 2256 903 2256 
Q 759 2256 657 2357 
Q 556 2459 556 2603 
Q 556 2747 657 2848 
Q 759 2950 903 2950 
z
M 897 609 
Q 1044 609 1145 506 
Q 1247 403 1247 259 
Q 1247 116 1144 14 
Q 1041 -88 897 -88 
Q 753 -88 651 14 
Q 550 116 550 259 
Q 550 403 651 506 
Q 753 609 897 609 
z
" id="TimesNewRomanPSMT-3a" transform="scale(0.015625)"/>
      <path id="TimesNewRomanPSMT-20" transform="scale(0.015625)"/>
      <path d="M 1338 4006 
L 1338 2331 
L 2269 2331 
Q 2631 2331 2753 2441 
Q 2916 2584 2934 2947 
L 3050 2947 
L 3050 1472 
L 2934 1472 
Q 2891 1781 2847 1869 
Q 2791 1978 2662 2040 
Q 2534 2103 2269 2103 
L 1338 2103 
L 1338 706 
Q 1338 425 1363 364 
Q 1388 303 1450 267 
Q 1513 231 1688 231 
L 2406 231 
Q 2766 231 2928 281 
Q 3091 331 3241 478 
Q 3434 672 3638 1063 
L 3763 1063 
L 3397 0 
L 131 0 
L 131 116 
L 281 116 
Q 431 116 566 188 
Q 666 238 702 338 
Q 738 438 738 747 
L 738 3500 
Q 738 3903 656 3997 
Q 544 4122 281 4122 
L 131 4122 
L 131 4238 
L 3397 4238 
L 3444 3309 
L 3322 3309 
Q 3256 3644 3176 3769 
Q 3097 3894 2941 3959 
Q 2816 4006 2500 4006 
L 1338 4006 
z
" id="TimesNewRomanPSMT-45" transform="scale(0.015625)"/>
      <path d="M -6 2578 
L 875 2934 
L 994 2934 
L 994 2266 
Q 1216 2644 1439 2795 
Q 1663 2947 1909 2947 
Q 2341 2947 2628 2609 
Q 2981 2197 2981 1534 
Q 2981 794 2556 309 
Q 2206 -88 1675 -88 
Q 1444 -88 1275 -22 
Q 1150 25 994 166 
L 994 -706 
Q 994 -1000 1030 -1079 
Q 1066 -1159 1155 -1206 
Q 1244 -1253 1478 -1253 
L 1478 -1369 
L -22 -1369 
L -22 -1253 
L 56 -1253 
Q 228 -1256 350 -1188 
Q 409 -1153 442 -1076 
Q 475 -1000 475 -688 
L 475 2019 
Q 475 2297 450 2372 
Q 425 2447 370 2484 
Q 316 2522 222 2522 
Q 147 2522 31 2478 
L -6 2578 
z
M 994 2081 
L 994 1013 
Q 994 666 1022 556 
Q 1066 375 1236 237 
Q 1406 100 1666 100 
Q 1978 100 2172 344 
Q 2425 663 2425 1241 
Q 2425 1897 2138 2250 
Q 1938 2494 1663 2494 
Q 1513 2494 1366 2419 
Q 1253 2363 994 2081 
z
" id="TimesNewRomanPSMT-70" transform="scale(0.015625)"/>
      <path d="M 1600 2947 
Q 2250 2947 2644 2453 
Q 2978 2031 2978 1484 
Q 2978 1100 2793 706 
Q 2609 313 2286 112 
Q 1963 -88 1566 -88 
Q 919 -88 538 428 
Q 216 863 216 1403 
Q 216 1797 411 2186 
Q 606 2575 925 2761 
Q 1244 2947 1600 2947 
z
M 1503 2744 
Q 1338 2744 1170 2645 
Q 1003 2547 900 2300 
Q 797 2053 797 1666 
Q 797 1041 1045 587 
Q 1294 134 1700 134 
Q 2003 134 2200 384 
Q 2397 634 2397 1244 
Q 2397 2006 2069 2444 
Q 1847 2744 1503 2744 
z
" id="TimesNewRomanPSMT-6f" transform="scale(0.015625)"/>
      <path d="M 2631 1088 
Q 2516 522 2178 217 
Q 1841 -88 1431 -88 
Q 944 -88 581 321 
Q 219 731 219 1428 
Q 219 2103 620 2525 
Q 1022 2947 1584 2947 
Q 2006 2947 2278 2723 
Q 2550 2500 2550 2259 
Q 2550 2141 2473 2067 
Q 2397 1994 2259 1994 
Q 2075 1994 1981 2113 
Q 1928 2178 1911 2362 
Q 1894 2547 1784 2644 
Q 1675 2738 1481 2738 
Q 1169 2738 978 2506 
Q 725 2200 725 1697 
Q 725 1184 976 792 
Q 1228 400 1656 400 
Q 1963 400 2206 609 
Q 2378 753 2541 1131 
L 2631 1088 
z
" id="TimesNewRomanPSMT-63" transform="scale(0.015625)"/>
      <path d="M 1041 4444 
L 1041 2350 
Q 1388 2731 1591 2839 
Q 1794 2947 1997 2947 
Q 2241 2947 2416 2812 
Q 2591 2678 2675 2391 
Q 2734 2191 2734 1659 
L 2734 647 
Q 2734 375 2778 275 
Q 2809 200 2884 156 
Q 2959 113 3159 113 
L 3159 0 
L 1753 0 
L 1753 113 
L 1819 113 
Q 2019 113 2097 173 
Q 2175 234 2206 353 
Q 2216 403 2216 647 
L 2216 1659 
Q 2216 2128 2167 2275 
Q 2119 2422 2012 2495 
Q 1906 2569 1756 2569 
Q 1603 2569 1437 2487 
Q 1272 2406 1041 2159 
L 1041 647 
Q 1041 353 1073 281 
Q 1106 209 1195 161 
Q 1284 113 1503 113 
L 1503 0 
L 84 0 
L 84 113 
Q 275 113 384 172 
Q 447 203 484 290 
Q 522 378 522 647 
L 522 3238 
Q 522 3728 498 3840 
Q 475 3953 426 3993 
Q 378 4034 297 4034 
Q 231 4034 84 3984 
L 41 4094 
L 897 4444 
L 1041 4444 
z
" id="TimesNewRomanPSMT-68" transform="scale(0.015625)"/>
      <path d="M 116 2759 
L 3488 2759 
L 3488 2503 
L 116 2503 
L 116 2759 
z
M 116 1741 
L 3488 1741 
L 3488 1484 
L 116 1484 
L 116 1741 
z
" id="TimesNewRomanPSMT-3d" transform="scale(0.015625)"/>
      <path d="M 325 3431 
Q 506 3859 782 4092 
Q 1059 4325 1472 4325 
Q 1981 4325 2253 3994 
Q 2459 3747 2459 3466 
Q 2459 3003 1878 2509 
Q 2269 2356 2469 2072 
Q 2669 1788 2669 1403 
Q 2669 853 2319 450 
Q 1863 -75 997 -75 
Q 569 -75 414 31 
Q 259 138 259 259 
Q 259 350 332 419 
Q 406 488 509 488 
Q 588 488 669 463 
Q 722 447 909 348 
Q 1097 250 1169 231 
Q 1284 197 1416 197 
Q 1734 197 1970 444 
Q 2206 691 2206 1028 
Q 2206 1275 2097 1509 
Q 2016 1684 1919 1775 
Q 1784 1900 1550 2001 
Q 1316 2103 1072 2103 
L 972 2103 
L 972 2197 
Q 1219 2228 1467 2375 
Q 1716 2522 1828 2728 
Q 1941 2934 1941 3181 
Q 1941 3503 1739 3701 
Q 1538 3900 1238 3900 
Q 753 3900 428 3381 
L 325 3431 
z
" id="TimesNewRomanPSMT-33" transform="scale(0.015625)"/>
      <path d="M 231 2094 
Q 231 2819 450 3342 
Q 669 3866 1031 4122 
Q 1313 4325 1613 4325 
Q 2100 4325 2488 3828 
Q 2972 3213 2972 2159 
Q 2972 1422 2759 906 
Q 2547 391 2217 158 
Q 1888 -75 1581 -75 
Q 975 -75 572 641 
Q 231 1244 231 2094 
z
M 844 2016 
Q 844 1141 1059 588 
Q 1238 122 1591 122 
Q 1759 122 1940 273 
Q 2122 425 2216 781 
Q 2359 1319 2359 2297 
Q 2359 3022 2209 3506 
Q 2097 3866 1919 4016 
Q 1791 4119 1609 4119 
Q 1397 4119 1231 3928 
Q 1006 3669 925 3112 
Q 844 2556 844 2016 
z
" id="TimesNewRomanPSMT-30" transform="scale(0.015625)"/>
     </defs>
     <use xlink:href="#TimesNewRomanPSMT-52"/>
     <use x="66.699219" xlink:href="#TimesNewRomanPSMT-4f"/>
     <use x="138.916016" xlink:href="#TimesNewRomanPSMT-43"/>
     <use x="205.615234" xlink:href="#TimesNewRomanPSMT-3a"/>
     <use x="233.398438" xlink:href="#TimesNewRomanPSMT-20"/>
     <use x="258.398438" xlink:href="#TimesNewRomanPSMT-45"/>
     <use x="319.482422" xlink:href="#TimesNewRomanPSMT-70"/>
     <use x="369.482422" xlink:href="#TimesNewRomanPSMT-6f"/>
     <use x="419.482422" xlink:href="#TimesNewRomanPSMT-63"/>
     <use x="463.867188" xlink:href="#TimesNewRomanPSMT-68"/>
     <use x="513.867188" xlink:href="#TimesNewRomanPSMT-20"/>
     <use x="538.867188" xlink:href="#TimesNewRomanPSMT-3d"/>
     <use x="595.263672" xlink:href="#TimesNewRomanPSMT-20"/>
     <use x="620.263672" xlink:href="#TimesNewRomanPSMT-33"/>
     <use x="670.263672" xlink:href="#TimesNewRomanPSMT-30"/>
    </g>
   </g>
  </g>
 </g>
 <defs>
  <clipPath id="p3847016754">
   <rect height="442.9656" width="816.354" x="131.67" y="69.0336"/>
  </clipPath>
 </defs>
</svg>
