<?xml version="1.0" encoding="utf-8" standalone="no"?>
<!DOCTYPE svg PUBLIC "-//W3C//DTD SVG 1.1//EN"
  "http://www.w3.org/Graphics/SVG/1.1/DTD/svg11.dtd">
<svg height="575.28pt" version="1.1" viewBox="0 0 1053.36 575.28" width="1053.36pt" xmlns="http://www.w3.org/2000/svg" xmlns:xlink="http://www.w3.org/1999/xlink">
 <metadata>
  <rdf:RDF xmlns:cc="http://creativecommons.org/ns#" xmlns:dc="http://purl.org/dc/elements/1.1/" xmlns:rdf="http://www.w3.org/1999/02/22-rdf-syntax-ns#">
   <cc:Work>
    <dc:type rdf:resource="http://purl.org/dc/dcmitype/StillImage"/>
    <dc:date>2023-05-11T17:50:38.413291</dc:date>
    <dc:format>image/svg+xml</dc:format>
    <dc:creator>
     <cc:Agent>
      <dc:title>Matplotlib v3.4.3, https://matplotlib.org/</dc:title>
     </cc:Agent>
    </dc:creator>
   </cc:Work>
  </rdf:RDF>
 </metadata>
 <defs>
  <style type="text/css">*{stroke-linecap:butt;stroke-linejoin:round;}</style>
 </defs>
 <g id="figure_1">
  <g id="patch_1">
   <path d="M 0 575.28 
L 1053.36 575.28 
L 1053.36 0 
L 0 0 
z
" style="fill:#ffffff;"/>
  </g>
  <g id="axes_1">
   <g id="patch_2">
    <path d="M 131.67 511.9992 
L 948.024 511.9992 
L 948.024 69.0336 
L 131.67 69.0336 
z
" style="fill:#ffffff;"/>
   </g>
   <g id="matplotlib.axis_1">
    <g id="xtick_1">
     <g id="line2d_1">
      <path clip-path="url(#p99a999595b)" d="M 168.777 511.9992 
L 168.777 69.0336 
" style="fill:none;stroke:#b0b0b0;stroke-linecap:square;stroke-width:0.8;"/>
     </g>
     <g id="line2d_2">
      <defs>
       <path d="M 0 0 
L 0 3.5 
" id="m6114fa5789" style="stroke:#000000;stroke-width:0.8;"/>
      </defs>
      <g>
       <use style="stroke:#000000;stroke-width:0.8;" x="168.777" xlink:href="#m6114fa5789" y="511.9992"/>
      </g>
     </g>
     <g id="text_1">
      <!-- 0.0 -->
      <g transform="translate(160.825438 526.597638)scale(0.1 -0.1)">
       <defs>
        <path d="M 2034 4250 
Q 1547 4250 1301 3770 
Q 1056 3291 1056 2328 
Q 1056 1369 1301 889 
Q 1547 409 2034 409 
Q 2525 409 2770 889 
Q 3016 1369 3016 2328 
Q 3016 3291 2770 3770 
Q 2525 4250 2034 4250 
z
M 2034 4750 
Q 2819 4750 3233 4129 
Q 3647 3509 3647 2328 
Q 3647 1150 3233 529 
Q 2819 -91 2034 -91 
Q 1250 -91 836 529 
Q 422 1150 422 2328 
Q 422 3509 836 4129 
Q 1250 4750 2034 4750 
z
" id="DejaVuSans-30" transform="scale(0.015625)"/>
        <path d="M 684 794 
L 1344 794 
L 1344 0 
L 684 0 
L 684 794 
z
" id="DejaVuSans-2e" transform="scale(0.015625)"/>
       </defs>
       <use xlink:href="#DejaVuSans-30"/>
       <use x="63.623047" xlink:href="#DejaVuSans-2e"/>
       <use x="95.410156" xlink:href="#DejaVuSans-30"/>
      </g>
     </g>
    </g>
    <g id="xtick_2">
     <g id="line2d_3">
      <path clip-path="url(#p99a999595b)" d="M 317.205 511.9992 
L 317.205 69.0336 
" style="fill:none;stroke:#b0b0b0;stroke-linecap:square;stroke-width:0.8;"/>
     </g>
     <g id="line2d_4">
      <g>
       <use style="stroke:#000000;stroke-width:0.8;" x="317.205" xlink:href="#m6114fa5789" y="511.9992"/>
      </g>
     </g>
     <g id="text_2">
      <!-- 0.2 -->
      <g transform="translate(309.253438 526.597638)scale(0.1 -0.1)">
       <defs>
        <path d="M 1228 531 
L 3431 531 
L 3431 0 
L 469 0 
L 469 531 
Q 828 903 1448 1529 
Q 2069 2156 2228 2338 
Q 2531 2678 2651 2914 
Q 2772 3150 2772 3378 
Q 2772 3750 2511 3984 
Q 2250 4219 1831 4219 
Q 1534 4219 1204 4116 
Q 875 4013 500 3803 
L 500 4441 
Q 881 4594 1212 4672 
Q 1544 4750 1819 4750 
Q 2544 4750 2975 4387 
Q 3406 4025 3406 3419 
Q 3406 3131 3298 2873 
Q 3191 2616 2906 2266 
Q 2828 2175 2409 1742 
Q 1991 1309 1228 531 
z
" id="DejaVuSans-32" transform="scale(0.015625)"/>
       </defs>
       <use xlink:href="#DejaVuSans-30"/>
       <use x="63.623047" xlink:href="#DejaVuSans-2e"/>
       <use x="95.410156" xlink:href="#DejaVuSans-32"/>
      </g>
     </g>
    </g>
    <g id="xtick_3">
     <g id="line2d_5">
      <path clip-path="url(#p99a999595b)" d="M 465.633 511.9992 
L 465.633 69.0336 
" style="fill:none;stroke:#b0b0b0;stroke-linecap:square;stroke-width:0.8;"/>
     </g>
     <g id="line2d_6">
      <g>
       <use style="stroke:#000000;stroke-width:0.8;" x="465.633" xlink:href="#m6114fa5789" y="511.9992"/>
      </g>
     </g>
     <g id="text_3">
      <!-- 0.4 -->
      <g transform="translate(457.681438 526.597638)scale(0.1 -0.1)">
       <defs>
        <path d="M 2419 4116 
L 825 1625 
L 2419 1625 
L 2419 4116 
z
M 2253 4666 
L 3047 4666 
L 3047 1625 
L 3713 1625 
L 3713 1100 
L 3047 1100 
L 3047 0 
L 2419 0 
L 2419 1100 
L 313 1100 
L 313 1709 
L 2253 4666 
z
" id="DejaVuSans-34" transform="scale(0.015625)"/>
       </defs>
       <use xlink:href="#DejaVuSans-30"/>
       <use x="63.623047" xlink:href="#DejaVuSans-2e"/>
       <use x="95.410156" xlink:href="#DejaVuSans-34"/>
      </g>
     </g>
    </g>
    <g id="xtick_4">
     <g id="line2d_7">
      <path clip-path="url(#p99a999595b)" d="M 614.061 511.9992 
L 614.061 69.0336 
" style="fill:none;stroke:#b0b0b0;stroke-linecap:square;stroke-width:0.8;"/>
     </g>
     <g id="line2d_8">
      <g>
       <use style="stroke:#000000;stroke-width:0.8;" x="614.061" xlink:href="#m6114fa5789" y="511.9992"/>
      </g>
     </g>
     <g id="text_4">
      <!-- 0.6 -->
      <g transform="translate(606.109438 526.597638)scale(0.1 -0.1)">
       <defs>
        <path d="M 2113 2584 
Q 1688 2584 1439 2293 
Q 1191 2003 1191 1497 
Q 1191 994 1439 701 
Q 1688 409 2113 409 
Q 2538 409 2786 701 
Q 3034 994 3034 1497 
Q 3034 2003 2786 2293 
Q 2538 2584 2113 2584 
z
M 3366 4563 
L 3366 3988 
Q 3128 4100 2886 4159 
Q 2644 4219 2406 4219 
Q 1781 4219 1451 3797 
Q 1122 3375 1075 2522 
Q 1259 2794 1537 2939 
Q 1816 3084 2150 3084 
Q 2853 3084 3261 2657 
Q 3669 2231 3669 1497 
Q 3669 778 3244 343 
Q 2819 -91 2113 -91 
Q 1303 -91 875 529 
Q 447 1150 447 2328 
Q 447 3434 972 4092 
Q 1497 4750 2381 4750 
Q 2619 4750 2861 4703 
Q 3103 4656 3366 4563 
z
" id="DejaVuSans-36" transform="scale(0.015625)"/>
       </defs>
       <use xlink:href="#DejaVuSans-30"/>
       <use x="63.623047" xlink:href="#DejaVuSans-2e"/>
       <use x="95.410156" xlink:href="#DejaVuSans-36"/>
      </g>
     </g>
    </g>
    <g id="xtick_5">
     <g id="line2d_9">
      <path clip-path="url(#p99a999595b)" d="M 762.489 511.9992 
L 762.489 69.0336 
" style="fill:none;stroke:#b0b0b0;stroke-linecap:square;stroke-width:0.8;"/>
     </g>
     <g id="line2d_10">
      <g>
       <use style="stroke:#000000;stroke-width:0.8;" x="762.489" xlink:href="#m6114fa5789" y="511.9992"/>
      </g>
     </g>
     <g id="text_5">
      <!-- 0.8 -->
      <g transform="translate(754.537438 526.597638)scale(0.1 -0.1)">
       <defs>
        <path d="M 2034 2216 
Q 1584 2216 1326 1975 
Q 1069 1734 1069 1313 
Q 1069 891 1326 650 
Q 1584 409 2034 409 
Q 2484 409 2743 651 
Q 3003 894 3003 1313 
Q 3003 1734 2745 1975 
Q 2488 2216 2034 2216 
z
M 1403 2484 
Q 997 2584 770 2862 
Q 544 3141 544 3541 
Q 544 4100 942 4425 
Q 1341 4750 2034 4750 
Q 2731 4750 3128 4425 
Q 3525 4100 3525 3541 
Q 3525 3141 3298 2862 
Q 3072 2584 2669 2484 
Q 3125 2378 3379 2068 
Q 3634 1759 3634 1313 
Q 3634 634 3220 271 
Q 2806 -91 2034 -91 
Q 1263 -91 848 271 
Q 434 634 434 1313 
Q 434 1759 690 2068 
Q 947 2378 1403 2484 
z
M 1172 3481 
Q 1172 3119 1398 2916 
Q 1625 2713 2034 2713 
Q 2441 2713 2670 2916 
Q 2900 3119 2900 3481 
Q 2900 3844 2670 4047 
Q 2441 4250 2034 4250 
Q 1625 4250 1398 4047 
Q 1172 3844 1172 3481 
z
" id="DejaVuSans-38" transform="scale(0.015625)"/>
       </defs>
       <use xlink:href="#DejaVuSans-30"/>
       <use x="63.623047" xlink:href="#DejaVuSans-2e"/>
       <use x="95.410156" xlink:href="#DejaVuSans-38"/>
      </g>
     </g>
    </g>
    <g id="xtick_6">
     <g id="line2d_11">
      <path clip-path="url(#p99a999595b)" d="M 910.917 511.9992 
L 910.917 69.0336 
" style="fill:none;stroke:#b0b0b0;stroke-linecap:square;stroke-width:0.8;"/>
     </g>
     <g id="line2d_12">
      <g>
       <use style="stroke:#000000;stroke-width:0.8;" x="910.917" xlink:href="#m6114fa5789" y="511.9992"/>
      </g>
     </g>
     <g id="text_6">
      <!-- 1.0 -->
      <g transform="translate(902.965438 526.597638)scale(0.1 -0.1)">
       <defs>
        <path d="M 794 531 
L 1825 531 
L 1825 4091 
L 703 3866 
L 703 4441 
L 1819 4666 
L 2450 4666 
L 2450 531 
L 3481 531 
L 3481 0 
L 794 0 
L 794 531 
z
" id="DejaVuSans-31" transform="scale(0.015625)"/>
       </defs>
       <use xlink:href="#DejaVuSans-31"/>
       <use x="63.623047" xlink:href="#DejaVuSans-2e"/>
       <use x="95.410156" xlink:href="#DejaVuSans-30"/>
      </g>
     </g>
    </g>
    <g id="text_7">
     <!-- FPR -->
     <g transform="translate(525.61325 543.787325)scale(0.16 -0.16)">
      <defs>
       <path d="M 1309 4006 
L 1309 2341 
L 2081 2341 
Q 2347 2341 2470 2458 
Q 2594 2575 2634 2922 
L 2750 2922 
L 2750 1488 
L 2634 1488 
Q 2631 1734 2570 1850 
Q 2509 1966 2401 2023 
Q 2294 2081 2081 2081 
L 1309 2081 
L 1309 750 
Q 1309 428 1350 325 
Q 1381 247 1481 191 
Q 1619 116 1769 116 
L 1922 116 
L 1922 0 
L 103 0 
L 103 116 
L 253 116 
Q 516 116 634 269 
Q 709 369 709 750 
L 709 3488 
Q 709 3809 669 3913 
Q 638 3991 541 4047 
Q 406 4122 253 4122 
L 103 4122 
L 103 4238 
L 3256 4238 
L 3297 3306 
L 3188 3306 
Q 3106 3603 2998 3742 
Q 2891 3881 2733 3943 
Q 2575 4006 2244 4006 
L 1309 4006 
z
" id="TimesNewRomanPSMT-46" transform="scale(0.015625)"/>
       <path d="M 1313 1984 
L 1313 750 
Q 1313 350 1400 253 
Q 1519 116 1759 116 
L 1922 116 
L 1922 0 
L 106 0 
L 106 116 
L 266 116 
Q 534 116 650 291 
Q 713 388 713 750 
L 713 3488 
Q 713 3888 628 3984 
Q 506 4122 266 4122 
L 106 4122 
L 106 4238 
L 1659 4238 
Q 2228 4238 2556 4120 
Q 2884 4003 3109 3725 
Q 3334 3447 3334 3066 
Q 3334 2547 2992 2222 
Q 2650 1897 2025 1897 
Q 1872 1897 1694 1919 
Q 1516 1941 1313 1984 
z
M 1313 2163 
Q 1478 2131 1606 2115 
Q 1734 2100 1825 2100 
Q 2150 2100 2386 2351 
Q 2622 2603 2622 3003 
Q 2622 3278 2509 3514 
Q 2397 3750 2190 3867 
Q 1984 3984 1722 3984 
Q 1563 3984 1313 3925 
L 1313 2163 
z
" id="TimesNewRomanPSMT-50" transform="scale(0.015625)"/>
       <path d="M 4325 0 
L 3194 0 
L 1759 1981 
Q 1600 1975 1500 1975 
Q 1459 1975 1412 1976 
Q 1366 1978 1316 1981 
L 1316 750 
Q 1316 350 1403 253 
Q 1522 116 1759 116 
L 1925 116 
L 1925 0 
L 109 0 
L 109 116 
L 269 116 
Q 538 116 653 291 
Q 719 388 719 750 
L 719 3488 
Q 719 3888 631 3984 
Q 509 4122 269 4122 
L 109 4122 
L 109 4238 
L 1653 4238 
Q 2328 4238 2648 4139 
Q 2969 4041 3192 3777 
Q 3416 3513 3416 3147 
Q 3416 2756 3161 2468 
Q 2906 2181 2372 2063 
L 3247 847 
Q 3547 428 3762 290 
Q 3978 153 4325 116 
L 4325 0 
z
M 1316 2178 
Q 1375 2178 1419 2176 
Q 1463 2175 1491 2175 
Q 2097 2175 2405 2437 
Q 2713 2700 2713 3106 
Q 2713 3503 2464 3751 
Q 2216 4000 1806 4000 
Q 1625 4000 1316 3941 
L 1316 2178 
z
" id="TimesNewRomanPSMT-52" transform="scale(0.015625)"/>
      </defs>
      <use xlink:href="#TimesNewRomanPSMT-46"/>
      <use x="55.615234" xlink:href="#TimesNewRomanPSMT-50"/>
      <use x="111.230469" xlink:href="#TimesNewRomanPSMT-52"/>
     </g>
    </g>
   </g>
   <g id="matplotlib.axis_2">
    <g id="ytick_1">
     <g id="line2d_13">
      <path clip-path="url(#p99a999595b)" d="M 131.67 491.8644 
L 948.024 491.8644 
" style="fill:none;stroke:#b0b0b0;stroke-linecap:square;stroke-width:0.8;"/>
     </g>
     <g id="line2d_14">
      <defs>
       <path d="M 0 0 
L -3.5 0 
" id="m99bcf257d0" style="stroke:#000000;stroke-width:0.8;"/>
      </defs>
      <g>
       <use style="stroke:#000000;stroke-width:0.8;" x="131.67" xlink:href="#m99bcf257d0" y="491.8644"/>
      </g>
     </g>
     <g id="text_8">
      <!-- 0.0 -->
      <g transform="translate(108.766875 495.663619)scale(0.1 -0.1)">
       <use xlink:href="#DejaVuSans-30"/>
       <use x="63.623047" xlink:href="#DejaVuSans-2e"/>
       <use x="95.410156" xlink:href="#DejaVuSans-30"/>
      </g>
     </g>
    </g>
    <g id="ytick_2">
     <g id="line2d_15">
      <path clip-path="url(#p99a999595b)" d="M 131.67 411.3252 
L 948.024 411.3252 
" style="fill:none;stroke:#b0b0b0;stroke-linecap:square;stroke-width:0.8;"/>
     </g>
     <g id="line2d_16">
      <g>
       <use style="stroke:#000000;stroke-width:0.8;" x="131.67" xlink:href="#m99bcf257d0" y="411.3252"/>
      </g>
     </g>
     <g id="text_9">
      <!-- 0.2 -->
      <g transform="translate(108.766875 415.124419)scale(0.1 -0.1)">
       <use xlink:href="#DejaVuSans-30"/>
       <use x="63.623047" xlink:href="#DejaVuSans-2e"/>
       <use x="95.410156" xlink:href="#DejaVuSans-32"/>
      </g>
     </g>
    </g>
    <g id="ytick_3">
     <g id="line2d_17">
      <path clip-path="url(#p99a999595b)" d="M 131.67 330.786 
L 948.024 330.786 
" style="fill:none;stroke:#b0b0b0;stroke-linecap:square;stroke-width:0.8;"/>
     </g>
     <g id="line2d_18">
      <g>
       <use style="stroke:#000000;stroke-width:0.8;" x="131.67" xlink:href="#m99bcf257d0" y="330.786"/>
      </g>
     </g>
     <g id="text_10">
      <!-- 0.4 -->
      <g transform="translate(108.766875 334.585219)scale(0.1 -0.1)">
       <use xlink:href="#DejaVuSans-30"/>
       <use x="63.623047" xlink:href="#DejaVuSans-2e"/>
       <use x="95.410156" xlink:href="#DejaVuSans-34"/>
      </g>
     </g>
    </g>
    <g id="ytick_4">
     <g id="line2d_19">
      <path clip-path="url(#p99a999595b)" d="M 131.67 250.2468 
L 948.024 250.2468 
" style="fill:none;stroke:#b0b0b0;stroke-linecap:square;stroke-width:0.8;"/>
     </g>
     <g id="line2d_20">
      <g>
       <use style="stroke:#000000;stroke-width:0.8;" x="131.67" xlink:href="#m99bcf257d0" y="250.2468"/>
      </g>
     </g>
     <g id="text_11">
      <!-- 0.6 -->
      <g transform="translate(108.766875 254.046019)scale(0.1 -0.1)">
       <use xlink:href="#DejaVuSans-30"/>
       <use x="63.623047" xlink:href="#DejaVuSans-2e"/>
       <use x="95.410156" xlink:href="#DejaVuSans-36"/>
      </g>
     </g>
    </g>
    <g id="ytick_5">
     <g id="line2d_21">
      <path clip-path="url(#p99a999595b)" d="M 131.67 169.7076 
L 948.024 169.7076 
" style="fill:none;stroke:#b0b0b0;stroke-linecap:square;stroke-width:0.8;"/>
     </g>
     <g id="line2d_22">
      <g>
       <use style="stroke:#000000;stroke-width:0.8;" x="131.67" xlink:href="#m99bcf257d0" y="169.7076"/>
      </g>
     </g>
     <g id="text_12">
      <!-- 0.8 -->
      <g transform="translate(108.766875 173.506819)scale(0.1 -0.1)">
       <use xlink:href="#DejaVuSans-30"/>
       <use x="63.623047" xlink:href="#DejaVuSans-2e"/>
       <use x="95.410156" xlink:href="#DejaVuSans-38"/>
      </g>
     </g>
    </g>
    <g id="ytick_6">
     <g id="line2d_23">
      <path clip-path="url(#p99a999595b)" d="M 131.67 89.1684 
L 948.024 89.1684 
" style="fill:none;stroke:#b0b0b0;stroke-linecap:square;stroke-width:0.8;"/>
     </g>
     <g id="line2d_24">
      <g>
       <use style="stroke:#000000;stroke-width:0.8;" x="131.67" xlink:href="#m99bcf257d0" y="89.1684"/>
      </g>
     </g>
     <g id="text_13">
      <!-- 1.0 -->
      <g transform="translate(108.766875 92.967619)scale(0.1 -0.1)">
       <use xlink:href="#DejaVuSans-31"/>
       <use x="63.623047" xlink:href="#DejaVuSans-2e"/>
       <use x="95.410156" xlink:href="#DejaVuSans-30"/>
      </g>
     </g>
    </g>
    <g id="text_14">
     <!-- TPR -->
     <g transform="translate(101.344375 305.18765)rotate(-90)scale(0.16 -0.16)">
      <defs>
       <path d="M 3703 4238 
L 3750 3244 
L 3631 3244 
Q 3597 3506 3538 3619 
Q 3441 3800 3280 3886 
Q 3119 3972 2856 3972 
L 2259 3972 
L 2259 734 
Q 2259 344 2344 247 
Q 2463 116 2709 116 
L 2856 116 
L 2856 0 
L 1059 0 
L 1059 116 
L 1209 116 
Q 1478 116 1591 278 
Q 1659 378 1659 734 
L 1659 3972 
L 1150 3972 
Q 853 3972 728 3928 
Q 566 3869 450 3700 
Q 334 3531 313 3244 
L 194 3244 
L 244 4238 
L 3703 4238 
z
" id="TimesNewRomanPSMT-54" transform="scale(0.015625)"/>
      </defs>
      <use xlink:href="#TimesNewRomanPSMT-54"/>
      <use x="61.083984" xlink:href="#TimesNewRomanPSMT-50"/>
      <use x="116.699219" xlink:href="#TimesNewRomanPSMT-52"/>
     </g>
    </g>
   </g>
   <g id="line2d_25">
    <path clip-path="url(#p99a999595b)" d="M 168.777 491.8644 
L 177.044071 474.01901 
L 181.959693 465.608182 
L 184.755836 461.167088 
L 190.881363 452.251758 
L 193.117296 449.221061 
L 196.100993 444.875712 
L 197.405288 443.100748 
L 198.37125 441.686668 
L 198.753713 441.259498 
L 203.594558 435.047122 
L 203.842178 434.76357 
L 204.766462 433.592535 
L 205.370802 432.811845 
L 207.172788 430.587616 
L 207.810225 429.803244 
L 208.164493 429.412899 
L 208.627861 428.996776 
L 208.855867 428.646939 
L 209.136585 428.370752 
L 209.72744 427.774187 
L 211.36026 425.84824 
L 211.476715 425.711987 
L 212.066345 424.87606 
L 212.608166 424.246353 
L 213.583936 422.972208 
L 213.775167 422.788083 
L 214.128209 422.268851 
L 214.259374 422.088408 
L 214.44325 421.801173 
L 215.226562 420.928421 
L 220.111538 415.227912 
L 220.277027 415.065883 
L 223.266853 411.637476 
L 223.574539 411.427573 
L 223.899387 411.051959 
L 226.617076 408.179609 
L 226.949279 407.800312 
L 227.156446 407.608822 
L 227.627169 407.100637 
L 227.874788 406.846545 
L 228.308736 406.349407 
L 228.469321 406.1616 
L 228.658101 405.988522 
L 229.517415 405.023708 
L 229.655935 404.89482 
L 230.131561 404.40873 
L 230.354665 404.176733 
L 230.623124 403.841625 
L 230.730998 403.709055 
L 231.364757 403.138268 
L 231.66754 402.876811 
L 231.935999 402.607988 
L 232.167683 402.401768 
L 232.640858 401.978281 
L 232.942415 401.749966 
L 233.203519 401.503239 
L 233.426622 401.263876 
L 234.564202 400.144396 
L 234.904986 399.827701 
L 235.076604 399.639894 
L 235.380612 399.345294 
L 236.117342 398.549874 
L 236.394383 398.192672 
L 236.61626 397.968039 
L 237.112725 397.45249 
L 237.292924 397.191032 
L 237.715839 396.808052 
L 238.265016 396.31828 
L 239.74338 394.9042 
L 240.017968 394.686933 
L 240.993737 393.670563 
L 241.134709 393.596913 
L 242.936695 391.788806 
L 243.857302 390.919736 
L 244.822039 389.958604 
L 245.327085 389.446737 
L 245.870132 388.949599 
L 246.639961 388.246242 
L 246.84345 388.054752 
L 248.066839 386.868987 
L 248.305878 386.559657 
L 249.162741 385.786333 
L 249.34294 385.613255 
L 249.781791 385.263418 
L 250.102961 384.965135 
L 250.311354 384.758915 
L 250.709752 384.294921 
L 252.647807 382.527321 
L 252.946912 382.210626 
L 253.089109 382.048596 
L 253.879777 381.293684 
L 254.085718 381.061686 
L 254.76606 380.413567 
L 255.26988 379.901699 
L 257.60143 377.710612 
L 257.838017 377.53017 
L 260.301957 375.206513 
L 260.542222 374.992928 
L 260.858489 374.709376 
L 262.471695 373.118536 
L 262.749961 372.805524 
L 262.960806 372.676636 
L 263.402109 372.260514 
L 263.829927 371.837026 
L 264.254068 371.413539 
L 264.391362 371.266239 
L 264.827762 370.875894 
L 265.093769 370.647579 
L 265.430875 370.408217 
L 265.629461 370.172537 
L 270.097651 366.114423 
L 270.454371 365.75722 
L 270.84664 365.422113 
L 271.105293 365.182751 
L 271.502465 364.866056 
L 273.411099 363.323089 
L 273.583943 363.146329 
L 275.195924 361.665964 
L 275.506061 361.305079 
L 276.376408 360.553849 
L 276.863067 359.972014 
L 277.276176 359.725287 
L 280.931633 356.451545 
L 281.214802 356.175358 
L 281.776237 355.733458 
L 281.966243 355.626666 
L 282.403868 355.210543 
L 283.059693 354.706041 
L 283.28157 354.455631 
L 287.663951 350.636879 
L 287.999832 350.390152 
L 288.5012 349.974029 
L 288.946181 349.50267 
L 290.035953 348.567315 
L 290.645196 348.05913 
L 291.220116 347.591453 
L 291.546189 347.348408 
L 291.987492 347.005935 
L 292.80145 346.309943 
L 293.28198 345.860678 
L 294.343558 345.017386 
L 294.781183 344.649136 
L 298.186569 341.971959 
L 298.500384 341.636852 
L 300.07559 340.333247 
L 300.377147 340.034965 
L 301.149427 339.427352 
L 302.806763 338.05378 
L 303.105869 337.836513 
L 303.37065 337.68553 
L 305.553873 335.991581 
L 305.844397 335.715393 
L 306.475705 335.240351 
L 307.023656 334.813181 
L 309.464305 333.104501 
L 309.77812 332.872504 
L 312.418582 330.854494 
L 313.231314 330.187962 
L 313.767007 329.753427 
L 316.42463 327.8864 
L 316.717606 327.661768 
L 317.00813 327.40031 
L 317.320719 327.168313 
L 317.879703 326.792698 
L 318.731662 326.074611 
L 319.000121 325.861026 
L 320.005311 325.069288 
L 321.191925 324.273869 
L 321.479997 324.041871 
L 322.362603 323.448989 
L 322.784292 323.132294 
L 323.034364 322.981312 
L 323.272177 322.804552 
L 324.811833 321.813959 
L 326.814857 320.219437 
L 327.045315 320.038995 
L 329.550934 318.227205 
L 329.831651 318.102 
L 331.263433 317.037758 
L 331.699833 316.721063 
L 331.871451 316.588493 
L 332.702571 315.969833 
L 332.860704 315.877771 
L 333.141422 315.697328 
L 334.050996 315.041844 
L 334.270421 314.857719 
L 334.814694 314.478421 
L 335.774528 313.830301 
L 336.168023 313.557796 
L 338.034978 312.158447 
L 340.482983 310.302467 
L 340.680343 310.166215 
L 340.989255 309.971042 
L 343.472809 308.22922 
L 343.759655 308.026683 
L 344.572388 307.452213 
L 348.867734 304.344184 
L 349.181549 304.163741 
L 354.968744 300.35972 
L 355.269075 300.142452 
L 355.890577 299.693188 
L 357.784501 298.360123 
L 358.423164 297.899811 
L 362.796964 294.876479 
L 363.023745 294.659211 
L 363.500597 294.357246 
L 364.595273 293.620747 
L 364.98509 293.418209 
L 373.689786 287.946016 
L 373.944761 287.761891 
L 383.438899 281.55688 
L 383.943945 281.24755 
L 386.038907 279.910803 
L 386.719249 279.439443 
L 387.404494 278.953353 
L 388.729628 278.091648 
L 389.94321 277.380926 
L 392.344632 275.849006 
L 393.670992 275.024127 
L 394.022809 274.803177 
L 394.643084 274.342864 
L 395.034127 274.055629 
L 395.574723 273.738934 
L 396.111641 273.411192 
L 398.638099 271.809305 
L 398.93843 271.643592 
L 399.675161 271.209058 
L 399.936265 271.05071 
L 401.330046 270.111673 
L 403.66895 268.572388 
L 404.481683 268.115758 
L 404.948728 267.799063 
L 405.999274 267.198816 
L 406.24199 267.088341 
L 407.330537 266.300286 
L 407.514413 266.186129 
L 409.23672 265.184489 
L 410.425785 264.540052 
L 413.766202 262.38579 
L 415.240888 261.59037 
L 415.566962 261.417293 
L 416.535376 260.857553 
L 417.154426 260.448795 
L 417.576115 260.224163 
L 418.461172 259.690201 
L 418.876732 259.469251 
L 419.409973 259.174651 
L 419.997151 258.850591 
L 425.412916 255.830942 
L 425.826024 255.598944 
L 426.122678 255.477422 
L 427.075156 254.899269 
L 429.358898 253.636172 
L 429.684971 253.422587 
L 434.626336 250.491318 
L 435.125253 250.244591 
L 436.18438 249.655391 
L 436.539873 249.423393 
L 436.929691 249.198761 
L 437.385704 248.878383 
L 437.943461 248.583783 
L 438.308762 248.355468 
L 438.882455 247.983536 
L 443.845885 245.262169 
L 444.347254 245.011759 
L 445.394122 244.400465 
L 446.162724 243.940152 
L 447.237787 243.358317 
L 448.105682 242.839085 
L 452.364253 240.541206 
L 452.956334 240.301843 
L 453.368217 240.091941 
L 453.986041 239.778928 
L 454.548702 239.491693 
L 455.948612 238.666814 
L 456.343333 238.434816 
L 457.06903 238.015011 
L 457.304392 237.867711 
L 458.600106 237.087021 
L 459.041408 236.832929 
L 459.420193 236.645122 
L 461.202566 235.580879 
L 461.464896 235.455674 
L 462.370792 234.969584 
L 471.69086 230.005576 
L 472.504819 229.629961 
L 473.777242 228.841906 
L 474.232029 228.643051 
L 475.373286 227.994931 
L 475.666262 227.866044 
L 477.294179 227.059577 
L 477.631285 226.875452 
L 478.648733 226.370949 
L 481.620171 224.769062 
L 481.967084 224.584937 
L 482.50768 224.312432 
L 485.969455 222.607435 
L 486.396048 222.357025 
L 486.71967 222.224455 
L 487.04084 222.058743 
L 487.463755 221.823063 
L 488.68837 221.079198 
L 489.065929 220.872978 
L 492.276406 219.186394 
L 492.598802 219.002269 
L 493.63709 218.464624 
L 494.656989 217.963804 
L 503.550465 213.53744 
L 504.613269 213.073445 
L 505.039861 212.834083 
L 505.720203 212.487928 
L 506.014405 212.333263 
L 510.16265 210.495696 
L 510.780474 210.190048 
L 511.600562 209.796021 
L 512.175481 209.538246 
L 513.695524 208.805429 
L 514.348897 208.510829 
L 518.278943 206.595929 
L 519.932602 205.752637 
L 520.822563 205.410165 
L 521.696587 204.9609 
L 523.324504 204.161798 
L 525.421918 203.244855 
L 526.990994 202.464165 
L 530.563094 200.851231 
L 531.205435 200.538218 
L 532.639669 199.989526 
L 533.02826 199.809084 
L 534.15113 199.194106 
L 535.955568 198.472336 
L 536.546423 198.177737 
L 540.817253 196.32544 
L 542.110515 195.73624 
L 546.555414 193.839753 
L 554.470669 190.113064 
L 565.924926 185.174832 
L 567.675427 184.313128 
L 572.71731 182.192008 
L 573.937022 181.775886 
L 583.021728 177.898214 
L 586.896611 176.31474 
L 600.797647 170.492709 
L 609.548925 166.806527 
L 622.449674 161.794646 
L 632.027169 158.045862 
L 645.415803 153.218106 
L 667.342419 145.551143 
L 725.560053 127.411153 
L 910.917 89.1684 
L 910.917 89.1684 
" style="fill:none;stroke:#ff7f0e;stroke-linecap:square;stroke-width:1.5;"/>
   </g>
   <g id="patch_3">
    <path d="M 131.67 511.9992 
L 131.67 69.0336 
" style="fill:none;stroke:#000000;stroke-linecap:square;stroke-linejoin:miter;stroke-width:0.8;"/>
   </g>
   <g id="patch_4">
    <path d="M 948.024 511.9992 
L 948.024 69.0336 
" style="fill:none;stroke:#000000;stroke-linecap:square;stroke-linejoin:miter;stroke-width:0.8;"/>
   </g>
   <g id="patch_5">
    <path d="M 131.67 511.9992 
L 948.024 511.9992 
" style="fill:none;stroke:#000000;stroke-linecap:square;stroke-linejoin:miter;stroke-width:0.8;"/>
   </g>
   <g id="patch_6">
    <path d="M 131.67 69.0336 
L 948.024 69.0336 
" style="fill:none;stroke:#000000;stroke-linecap:square;stroke-linejoin:miter;stroke-width:0.8;"/>
   </g>
   <g id="text_15">
    <!-- ROC: Epoch = 10 -->
    <g transform="translate(467.820437 63.0336)scale(0.2 -0.2)">
     <defs>
      <path d="M 2341 4334 
Q 3166 4334 3770 3707 
Q 4375 3081 4375 2144 
Q 4375 1178 3765 540 
Q 3156 -97 2291 -97 
Q 1416 -97 820 525 
Q 225 1147 225 2134 
Q 225 3144 913 3781 
Q 1509 4334 2341 4334 
z
M 2281 4106 
Q 1713 4106 1369 3684 
Q 941 3159 941 2147 
Q 941 1109 1384 550 
Q 1725 125 2284 125 
Q 2881 125 3270 590 
Q 3659 1056 3659 2059 
Q 3659 3147 3231 3681 
Q 2888 4106 2281 4106 
z
" id="TimesNewRomanPSMT-4f" transform="scale(0.015625)"/>
      <path d="M 3853 4334 
L 3950 2894 
L 3853 2894 
Q 3659 3541 3300 3825 
Q 2941 4109 2438 4109 
Q 2016 4109 1675 3895 
Q 1334 3681 1139 3212 
Q 944 2744 944 2047 
Q 944 1472 1128 1050 
Q 1313 628 1683 403 
Q 2053 178 2528 178 
Q 2941 178 3256 354 
Q 3572 531 3950 1056 
L 4047 994 
Q 3728 428 3303 165 
Q 2878 -97 2294 -97 
Q 1241 -97 663 684 
Q 231 1266 231 2053 
Q 231 2688 515 3219 
Q 800 3750 1298 4042 
Q 1797 4334 2388 4334 
Q 2847 4334 3294 4109 
Q 3425 4041 3481 4041 
Q 3566 4041 3628 4100 
Q 3709 4184 3744 4334 
L 3853 4334 
z
" id="TimesNewRomanPSMT-43" transform="scale(0.015625)"/>
      <path d="M 903 2950 
Q 1047 2950 1148 2848 
Q 1250 2747 1250 2603 
Q 1250 2459 1148 2357 
Q 1047 2256 903 2256 
Q 759 2256 657 2357 
Q 556 2459 556 2603 
Q 556 2747 657 2848 
Q 759 2950 903 2950 
z
M 897 609 
Q 1044 609 1145 506 
Q 1247 403 1247 259 
Q 1247 116 1144 14 
Q 1041 -88 897 -88 
Q 753 -88 651 14 
Q 550 116 550 259 
Q 550 403 651 506 
Q 753 609 897 609 
z
" id="TimesNewRomanPSMT-3a" transform="scale(0.015625)"/>
      <path id="TimesNewRomanPSMT-20" transform="scale(0.015625)"/>
      <path d="M 1338 4006 
L 1338 2331 
L 2269 2331 
Q 2631 2331 2753 2441 
Q 2916 2584 2934 2947 
L 3050 2947 
L 3050 1472 
L 2934 1472 
Q 2891 1781 2847 1869 
Q 2791 1978 2662 2040 
Q 2534 2103 2269 2103 
L 1338 2103 
L 1338 706 
Q 1338 425 1363 364 
Q 1388 303 1450 267 
Q 1513 231 1688 231 
L 2406 231 
Q 2766 231 2928 281 
Q 3091 331 3241 478 
Q 3434 672 3638 1063 
L 3763 1063 
L 3397 0 
L 131 0 
L 131 116 
L 281 116 
Q 431 116 566 188 
Q 666 238 702 338 
Q 738 438 738 747 
L 738 3500 
Q 738 3903 656 3997 
Q 544 4122 281 4122 
L 131 4122 
L 131 4238 
L 3397 4238 
L 3444 3309 
L 3322 3309 
Q 3256 3644 3176 3769 
Q 3097 3894 2941 3959 
Q 2816 4006 2500 4006 
L 1338 4006 
z
" id="TimesNewRomanPSMT-45" transform="scale(0.015625)"/>
      <path d="M -6 2578 
L 875 2934 
L 994 2934 
L 994 2266 
Q 1216 2644 1439 2795 
Q 1663 2947 1909 2947 
Q 2341 2947 2628 2609 
Q 2981 2197 2981 1534 
Q 2981 794 2556 309 
Q 2206 -88 1675 -88 
Q 1444 -88 1275 -22 
Q 1150 25 994 166 
L 994 -706 
Q 994 -1000 1030 -1079 
Q 1066 -1159 1155 -1206 
Q 1244 -1253 1478 -1253 
L 1478 -1369 
L -22 -1369 
L -22 -1253 
L 56 -1253 
Q 228 -1256 350 -1188 
Q 409 -1153 442 -1076 
Q 475 -1000 475 -688 
L 475 2019 
Q 475 2297 450 2372 
Q 425 2447 370 2484 
Q 316 2522 222 2522 
Q 147 2522 31 2478 
L -6 2578 
z
M 994 2081 
L 994 1013 
Q 994 666 1022 556 
Q 1066 375 1236 237 
Q 1406 100 1666 100 
Q 1978 100 2172 344 
Q 2425 663 2425 1241 
Q 2425 1897 2138 2250 
Q 1938 2494 1663 2494 
Q 1513 2494 1366 2419 
Q 1253 2363 994 2081 
z
" id="TimesNewRomanPSMT-70" transform="scale(0.015625)"/>
      <path d="M 1600 2947 
Q 2250 2947 2644 2453 
Q 2978 2031 2978 1484 
Q 2978 1100 2793 706 
Q 2609 313 2286 112 
Q 1963 -88 1566 -88 
Q 919 -88 538 428 
Q 216 863 216 1403 
Q 216 1797 411 2186 
Q 606 2575 925 2761 
Q 1244 2947 1600 2947 
z
M 1503 2744 
Q 1338 2744 1170 2645 
Q 1003 2547 900 2300 
Q 797 2053 797 1666 
Q 797 1041 1045 587 
Q 1294 134 1700 134 
Q 2003 134 2200 384 
Q 2397 634 2397 1244 
Q 2397 2006 2069 2444 
Q 1847 2744 1503 2744 
z
" id="TimesNewRomanPSMT-6f" transform="scale(0.015625)"/>
      <path d="M 2631 1088 
Q 2516 522 2178 217 
Q 1841 -88 1431 -88 
Q 944 -88 581 321 
Q 219 731 219 1428 
Q 219 2103 620 2525 
Q 1022 2947 1584 2947 
Q 2006 2947 2278 2723 
Q 2550 2500 2550 2259 
Q 2550 2141 2473 2067 
Q 2397 1994 2259 1994 
Q 2075 1994 1981 2113 
Q 1928 2178 1911 2362 
Q 1894 2547 1784 2644 
Q 1675 2738 1481 2738 
Q 1169 2738 978 2506 
Q 725 2200 725 1697 
Q 725 1184 976 792 
Q 1228 400 1656 400 
Q 1963 400 2206 609 
Q 2378 753 2541 1131 
L 2631 1088 
z
" id="TimesNewRomanPSMT-63" transform="scale(0.015625)"/>
      <path d="M 1041 4444 
L 1041 2350 
Q 1388 2731 1591 2839 
Q 1794 2947 1997 2947 
Q 2241 2947 2416 2812 
Q 2591 2678 2675 2391 
Q 2734 2191 2734 1659 
L 2734 647 
Q 2734 375 2778 275 
Q 2809 200 2884 156 
Q 2959 113 3159 113 
L 3159 0 
L 1753 0 
L 1753 113 
L 1819 113 
Q 2019 113 2097 173 
Q 2175 234 2206 353 
Q 2216 403 2216 647 
L 2216 1659 
Q 2216 2128 2167 2275 
Q 2119 2422 2012 2495 
Q 1906 2569 1756 2569 
Q 1603 2569 1437 2487 
Q 1272 2406 1041 2159 
L 1041 647 
Q 1041 353 1073 281 
Q 1106 209 1195 161 
Q 1284 113 1503 113 
L 1503 0 
L 84 0 
L 84 113 
Q 275 113 384 172 
Q 447 203 484 290 
Q 522 378 522 647 
L 522 3238 
Q 522 3728 498 3840 
Q 475 3953 426 3993 
Q 378 4034 297 4034 
Q 231 4034 84 3984 
L 41 4094 
L 897 4444 
L 1041 4444 
z
" id="TimesNewRomanPSMT-68" transform="scale(0.015625)"/>
      <path d="M 116 2759 
L 3488 2759 
L 3488 2503 
L 116 2503 
L 116 2759 
z
M 116 1741 
L 3488 1741 
L 3488 1484 
L 116 1484 
L 116 1741 
z
" id="TimesNewRomanPSMT-3d" transform="scale(0.015625)"/>
      <path d="M 750 3822 
L 1781 4325 
L 1884 4325 
L 1884 747 
Q 1884 391 1914 303 
Q 1944 216 2037 169 
Q 2131 122 2419 116 
L 2419 0 
L 825 0 
L 825 116 
Q 1125 122 1212 167 
Q 1300 213 1334 289 
Q 1369 366 1369 747 
L 1369 3034 
Q 1369 3497 1338 3628 
Q 1316 3728 1258 3775 
Q 1200 3822 1119 3822 
Q 1003 3822 797 3725 
L 750 3822 
z
" id="TimesNewRomanPSMT-31" transform="scale(0.015625)"/>
      <path d="M 231 2094 
Q 231 2819 450 3342 
Q 669 3866 1031 4122 
Q 1313 4325 1613 4325 
Q 2100 4325 2488 3828 
Q 2972 3213 2972 2159 
Q 2972 1422 2759 906 
Q 2547 391 2217 158 
Q 1888 -75 1581 -75 
Q 975 -75 572 641 
Q 231 1244 231 2094 
z
M 844 2016 
Q 844 1141 1059 588 
Q 1238 122 1591 122 
Q 1759 122 1940 273 
Q 2122 425 2216 781 
Q 2359 1319 2359 2297 
Q 2359 3022 2209 3506 
Q 2097 3866 1919 4016 
Q 1791 4119 1609 4119 
Q 1397 4119 1231 3928 
Q 1006 3669 925 3112 
Q 844 2556 844 2016 
z
" id="TimesNewRomanPSMT-30" transform="scale(0.015625)"/>
     </defs>
     <use xlink:href="#TimesNewRomanPSMT-52"/>
     <use x="66.699219" xlink:href="#TimesNewRomanPSMT-4f"/>
     <use x="138.916016" xlink:href="#TimesNewRomanPSMT-43"/>
     <use x="205.615234" xlink:href="#TimesNewRomanPSMT-3a"/>
     <use x="233.398438" xlink:href="#TimesNewRomanPSMT-20"/>
     <use x="258.398438" xlink:href="#TimesNewRomanPSMT-45"/>
     <use x="319.482422" xlink:href="#TimesNewRomanPSMT-70"/>
     <use x="369.482422" xlink:href="#TimesNewRomanPSMT-6f"/>
     <use x="419.482422" xlink:href="#TimesNewRomanPSMT-63"/>
     <use x="463.867188" xlink:href="#TimesNewRomanPSMT-68"/>
     <use x="513.867188" xlink:href="#TimesNewRomanPSMT-20"/>
     <use x="538.867188" xlink:href="#TimesNewRomanPSMT-3d"/>
     <use x="595.263672" xlink:href="#TimesNewRomanPSMT-20"/>
     <use x="620.263672" xlink:href="#TimesNewRomanPSMT-31"/>
     <use x="670.263672" xlink:href="#TimesNewRomanPSMT-30"/>
    </g>
   </g>
  </g>
 </g>
 <defs>
  <clipPath id="p99a999595b">
   <rect height="442.9656" width="816.354" x="131.67" y="69.0336"/>
  </clipPath>
 </defs>
</svg>
